<svg width="48" height="48" viewBox="0 0 48 48" fill="none" xmlns="http://www.w3.org/2000/svg">
<g clip-path="url(#clip0_105_1019)">
<path d="M24 48C37.2548 48 48 37.2548 48 24C48 10.7452 37.2548 0 24 0C10.7452 0 0 10.7452 0 24C0 37.2548 10.7452 48 24 48Z" fill="#6DA544"/>
<path d="M23.9999 9.39136L43.8259 24L23.9999 38.6087L4.17383 24L23.9999 9.39136Z" fill="#FFDA44"/>
<path d="M24.0001 32.3477C28.6105 32.3477 32.3479 28.6102 32.3479 23.9999C32.3479 19.3895 28.6105 15.6521 24.0001 15.6521C19.3898 15.6521 15.6523 19.3895 15.6523 23.9999C15.6523 28.6102 19.3898 32.3477 24.0001 32.3477Z" fill="#F0F0F0"/>
<path d="M19.826 23.4783C18.3744 23.4783 16.9735 23.6991 15.6548 24.1087C15.7132 28.6687 19.4261 32.3479 23.9999 32.3479C26.8282 32.3479 29.3261 30.94 30.8361 28.7884C28.2526 25.5543 24.2775 23.4783 19.826 23.4783V23.4783Z" fill="#0052B4"/>
<path d="M32.1928 25.5993C32.2933 25.0814 32.3476 24.5471 32.3476 23.9999C32.3476 19.3894 28.6101 15.6521 23.9998 15.6521C20.5597 15.6521 17.6066 17.7334 16.3286 20.7051C17.4583 20.471 18.6279 20.3478 19.826 20.3478C24.6744 20.3477 29.0606 22.3631 32.1928 25.5993V25.5993Z" fill="#0052B4"/>
</g>
<defs>
<clipPath id="clip0_105_1019">
<rect width="48" height="48" fill="white"/>
</clipPath>
</defs>
</svg>
